<svg width="130" height="116" viewBox="0 0 130 116" fill="none" xmlns="http://www.w3.org/2000/svg">
<g filter="url(#filter0_d_50_21)">
<g clip-path="url(#clip0_50_21)">
<rect x="4" width="122" height="108" rx="16" fill="#97BE5A"/>
<path d="M8.5 13C8.5 8.85786 11.8579 5.5 16 5.5H82C86.1421 5.5 89.5 8.85786 89.5 13V20C89.5 24.1421 86.1421 27.5 82 27.5H16C11.8579 27.5 8.5 24.1421 8.5 20V13Z" fill="#FFA27F" stroke="black"/>
<path d="M17.288 23L16.168 16.392H16.104L14.952 23H12.712L11.16 11.8H13.304L13.752 15.096L14.088 18.808H14.168L14.76 15.112L15.256 11.8H17.064L17.544 15.112L18.152 18.808H18.232L18.552 15.096L19 11.8H21.144L19.592 23H17.288ZM25.3565 19.304H23.6445C23.4205 19.5813 23.3085 19.928 23.3085 20.344C23.3085 20.76 23.4258 21.0853 23.6605 21.32H25.3565V19.304ZM21.9165 14.824H25.8845C26.5245 15.208 26.9458 15.6507 27.1485 16.152C27.3512 16.6427 27.4525 17.3147 27.4525 18.168V20.568C27.4525 21.4533 27.4738 22.264 27.5165 23H25.6925L25.4045 22.424C24.9885 22.808 24.4018 23 23.6445 23H22.6365C21.7298 22.4027 21.2765 21.544 21.2765 20.424C21.2765 19.2933 21.7405 18.4027 22.6685 17.752H24.1725C24.5885 17.752 24.9778 17.88 25.3405 18.136V17.336C25.3405 16.92 25.1592 16.6427 24.7965 16.504H21.9165V14.824ZM30.9406 11.8V23H28.8286V11.8H30.9406ZM34.425 11.8V23H32.313V11.8H34.425ZM35.7494 18.504V14.824H37.8774V18.52C37.8774 19.448 38.064 20.2213 38.4374 20.84H39.3814C39.7334 20.232 39.9094 19.4587 39.9094 18.52V14.824H42.0374V18.392C42.0374 19.192 41.9307 19.896 41.7174 20.504C41.5147 21.112 41.1787 21.8 40.7094 22.568L39.6374 24.312C39.4454 24.6427 39.2427 24.888 39.0294 25.048C38.816 25.208 38.5387 25.3253 38.1974 25.4H35.6694V23.72H37.3974C37.6214 23.656 37.808 23.544 37.9574 23.384C38.1067 23.224 38.2614 22.9947 38.4214 22.696L38.5174 22.52H37.4134C36.9014 22.104 36.496 21.544 36.1974 20.84C35.8987 20.1253 35.7494 19.3467 35.7494 18.504ZM43.3599 11.8H45.4719V15.4C45.7065 15.1867 45.9252 15.0373 46.1279 14.952C46.3412 14.8667 46.6559 14.824 47.0719 14.824H48.3519C48.7999 15.2613 49.1519 15.8267 49.4079 16.52C49.6639 17.2133 49.7919 17.976 49.7919 18.808C49.7919 20.5893 49.2585 21.9867 48.1919 23H46.6719C46.1492 23 45.7119 22.8027 45.3599 22.408L45.0719 23H43.3599V11.8ZM45.4879 21.32H47.0239C47.4185 20.648 47.6159 19.832 47.6159 18.872C47.6159 17.912 47.4132 17.1227 47.0079 16.504H45.4879V21.32ZM50.954 23V14.824H52.474L52.874 15.688C53.3007 15.112 53.8393 14.824 54.49 14.824H55.114V16.968H53.082V23H50.954ZM56.0318 23V14.824H58.1438V23H56.0318ZM56.0318 11.8H58.1438V13.96H56.0318V11.8ZM61.5001 18.84C61.5001 19.288 61.5695 19.7467 61.7081 20.216C61.8468 20.6747 62.0388 21.0427 62.2841 21.32H64.6841V23H61.1801C59.9215 21.9973 59.2921 20.6107 59.2921 18.84C59.2921 17.0693 59.9641 15.7307 61.3081 14.824H64.6841V16.504H62.2841C61.7615 17.048 61.5001 17.8267 61.5001 18.84ZM66.5505 14.824H70.0865V16.504H67.5905L69.1105 18.76C69.7932 19.7307 70.1718 20.3973 70.2465 20.76C70.2892 20.9307 70.3105 21.1067 70.3105 21.288C70.3105 22.0453 70.0278 22.616 69.4625 23H65.3825V21.32H68.3105L66.5985 18.808C66.5238 18.6907 66.4065 18.5253 66.2465 18.312C66.0972 18.0987 65.9798 17.928 65.8945 17.8C65.8092 17.6613 65.7505 17.56 65.7185 17.496C65.6865 17.432 65.6438 17.352 65.5905 17.256C65.5372 17.1493 65.4998 17.0587 65.4785 16.984C65.4358 16.7813 65.4145 16.616 65.4145 16.488C65.4145 15.7093 65.7932 15.1547 66.5505 14.824Z" fill="black"/>
<path d="M8.5 40C8.5 35.8579 11.8579 32.5 16 32.5H67C71.1421 32.5 74.5 35.8579 74.5 40V46C74.5 50.1421 71.1421 53.5 67 53.5H16C11.8579 53.5 8.5 50.1421 8.5 46V40Z" fill="#FFA27F" stroke="black"/>
<rect x="27.5" y="70.5" width="25" height="33" rx="9.5" fill="#FFA27F" stroke="black"/>
<rect x="-2.5" y="74.5" width="25" height="33" rx="9.5" fill="#FFA27F" stroke="black"/>
<rect x="81.5" y="30.5" width="38" height="41" rx="8.5" fill="#FF0000" stroke="black"/>
<rect x="88.5" y="41.5" width="8" height="14" rx="4" fill="#FFE8C5" stroke="black"/>
<rect x="103.5" y="41.5" width="8" height="14" rx="4" fill="#FFE8C5" stroke="black"/>
<ellipse cx="79.5" cy="52" rx="3.5" ry="9" fill="#FF0000"/>
<path d="M79 30L94 27H117L119.5 36V43M79 30V42.5H79.5L80 42L80.5 41.5L81.5 41V40V38.5L82.5 36L83.5 34.5V34L85.5 31.5L79 30Z" stroke="#FF0000"/>
<ellipse cx="121.5" cy="49.5" rx="3.5" ry="8.5" fill="#FF0000"/>
<rect x="8.5" y="56.5" width="18" height="10" rx="2.5" fill="#FFA27F" stroke="black"/>
<rect x="76.5" y="85.5" width="18" height="10" rx="2.5" fill="#FFA27F" stroke="black"/>
<rect x="54.5" y="61.5" width="18" height="10" rx="2.5" fill="#FFA27F" stroke="black"/>
<rect x="95.5" y="8.5" width="12" height="14" rx="3.5" fill="#FFA27F" stroke="black"/>
<rect x="112.5" y="12.5" width="14" height="5" rx="2.5" fill="#FFA27F" stroke="black"/>
<rect x="101.5" y="79.5" width="18" height="5" rx="2.5" fill="#FFA27F" stroke="black"/>
<rect x="78.5" y="72.5" width="18" height="9" rx="3.5" fill="#FFA27F" stroke="black"/>
<rect x="31.5" y="59.5" width="18" height="5" rx="2.5" fill="#FFA27F" stroke="black"/>
<rect x="73.5" y="99.5" width="18" height="5" rx="2.5" fill="#FFA27F" stroke="black"/>
<rect x="56.5" y="79.5" width="18" height="5" rx="2.5" fill="#FFA27F" stroke="black"/>
<rect x="57.5" y="89.5" width="10" height="9" rx="3.5" fill="#FFA27F" stroke="black"/>
<rect x="101.5" y="88.5" width="22" height="16" rx="5.5" fill="#FFA27F" stroke="black"/>
<path d="M13.832 38.8H16.136V40.48H14.696C14.3333 40.704 14.152 41.152 14.152 41.824H15.816V43.504H14.152V50H12.024V43.504H11.144V41.824H12.024C12.024 40.4373 12.6267 39.4293 13.832 38.8ZM21.1926 50H17.7046C16.638 49.008 16.1046 47.6533 16.1046 45.936C16.1046 45.072 16.222 44.32 16.4566 43.68C16.702 43.04 17.086 42.4213 17.6086 41.824H21.3526C21.9073 42.464 22.286 43.088 22.4886 43.696C22.6913 44.2933 22.7926 45.04 22.7926 45.936C22.7926 47.6533 22.2593 49.008 21.1926 50ZM18.8406 48.32H20.0566C20.4406 47.5733 20.6326 46.7253 20.6326 45.776C20.6326 44.8267 20.4353 44.0693 20.0406 43.504H18.8406C18.4566 44.048 18.2646 44.8213 18.2646 45.824C18.2646 46.816 18.4566 47.648 18.8406 48.32ZM23.954 50V41.824H25.474L25.874 42.688C26.3007 42.112 26.8393 41.824 27.49 41.824H28.114V43.968H26.082V50H23.954ZM33.7063 38.8V50H31.5943V38.8H33.7063ZM35.0306 45.504V41.824H37.1586V45.52C37.1586 46.448 37.3453 47.2213 37.7186 47.84H38.6626C39.0146 47.232 39.1906 46.4587 39.1906 45.52V41.824H41.3186V45.392C41.3186 46.192 41.212 46.896 40.9986 47.504C40.796 48.112 40.46 48.8 39.9906 49.568L38.9186 51.312C38.7266 51.6427 38.524 51.888 38.3106 52.048C38.0973 52.208 37.82 52.3253 37.4786 52.4H34.9506V50.72H36.6786C36.9026 50.656 37.0893 50.544 37.2386 50.384C37.388 50.224 37.5426 49.9947 37.7026 49.696L37.7986 49.52H36.6946C36.1826 49.104 35.7773 48.544 35.4786 47.84C35.18 47.1253 35.0306 46.3467 35.0306 45.504ZM42.6571 50V41.824H44.1771L44.5771 42.688C45.0038 42.112 45.5425 41.824 46.1931 41.824H46.8171V43.968H44.7851V50H42.6571ZM47.7349 50V41.824H49.8469V50H47.7349ZM47.7349 38.8H49.8469V40.96H47.7349V38.8ZM53.2033 45.84C53.2033 46.288 53.2726 46.7467 53.4113 47.216C53.5499 47.6747 53.7419 48.0427 53.9873 48.32H56.3873V50H52.8832C51.6246 48.9973 50.9953 47.6107 50.9953 45.84C50.9953 44.0693 51.6673 42.7307 53.0113 41.824H56.3873V43.504H53.9873C53.4646 44.048 53.2033 44.8267 53.2033 45.84ZM58.2536 41.824H61.7896V43.504H59.2936L60.8136 45.76C61.4963 46.7307 61.875 47.3973 61.9496 47.76C61.9923 47.9307 62.0136 48.1067 62.0136 48.288C62.0136 49.0453 61.731 49.616 61.1656 50H57.0856V48.32H60.0136L58.3016 45.808C58.227 45.6907 58.1096 45.5253 57.9496 45.312C57.8003 45.0987 57.683 44.928 57.5976 44.8C57.5123 44.6613 57.4536 44.56 57.4216 44.496C57.3896 44.432 57.347 44.352 57.2936 44.256C57.2403 44.1493 57.203 44.0587 57.1816 43.984C57.139 43.7813 57.1176 43.616 57.1176 43.488C57.1176 42.7093 57.4963 42.1547 58.2536 41.824Z" fill="black"/>
</g>
<rect x="4.5" y="0.5" width="121" height="107" rx="15.5" stroke="black"/>
</g>
<defs>
<filter id="filter0_d_50_21" x="0" y="0" width="130" height="116" filterUnits="userSpaceOnUse" color-interpolation-filters="sRGB">
<feFlood flood-opacity="0" result="BackgroundImageFix"/>
<feColorMatrix in="SourceAlpha" type="matrix" values="0 0 0 0 0 0 0 0 0 0 0 0 0 0 0 0 0 0 127 0" result="hardAlpha"/>
<feOffset dy="4"/>
<feGaussianBlur stdDeviation="2"/>
<feComposite in2="hardAlpha" operator="out"/>
<feColorMatrix type="matrix" values="0 0 0 0 0 0 0 0 0 0 0 0 0 0 0 0 0 0 0.25 0"/>
<feBlend mode="normal" in2="BackgroundImageFix" result="effect1_dropShadow_50_21"/>
<feBlend mode="normal" in="SourceGraphic" in2="effect1_dropShadow_50_21" result="shape"/>
</filter>
<clipPath id="clip0_50_21">
<rect x="4" width="122" height="108" rx="16" fill="white"/>
</clipPath>
</defs>
</svg>
